<svg id="Layer_1" data-name="Layer 1" xmlns="http://www.w3.org/2000/svg" viewBox="0 0 124 100.74"><title>Aalto_EN_21_BLACK_3</title><path d="M117.72,89.71l-1,3.6c-.18.71-.31,1.25-.41,1.78l-.1-.31c-.18-.66-.18-.68-.41-1.42l-1.17-3.65h-2.51l2.63,6.71c.28.69.3.74.3,1,0,.69-.38,1-1.21,1h-.69v1.77h1.37c1.78,0,2.16-.33,2.91-2.46l2.77-8Zm-6.76.1h-1.44V87.28h-2.35v2.53h-1.12v1.65h1.12V95.1c0,1.24.1,1.67.46,2.07s.86.53,1.88.53H111V95.92h-.84c-.55,0-.6-.1-.6-1.36V91.46H111Zm-6.52-3.14h-2.35V88.6h2.35Zm0,3h-2.35v8h2.35Zm-4,2.4c-.2-1.68-1.45-2.61-3.5-2.61s-3.4,1-3.4,2.58c0,1.27.68,1.92,2.43,2.3l1.45.33c.63.15.89.36.89.73s-.5.78-1.22.78c-.94,0-1.44-.36-1.57-1.11h-2.2c.13,1.77,1.5,2.81,3.72,2.81s3.59-1.06,3.59-2.74a2.22,2.22,0,0,0-.6-1.6,3.22,3.22,0,0,0-1.82-.78l-1.47-.31c-.74-.17-1-.31-1-.61s.45-.66,1.12-.66,1.26.31,1.35.91Zm-13.17-2.4v8h2.35V95.44a7.4,7.4,0,0,1,.31-2.82,1.81,1.81,0,0,1,1.74-1,5,5,0,0,1,.6,0V89.5c-1.7,0-2.3.35-2.76,1.64l.07-1.42Zm-7.33,3a1.62,1.62,0,0,1,1.68-1.45,1.46,1.46,0,0,1,1.55,1.45Zm5.65,1.65A6.59,6.59,0,0,0,85.19,92a3.59,3.59,0,0,0-3.58-2.46,4,4,0,0,0-4.08,4.21,3.92,3.92,0,0,0,4.1,4.2,3.75,3.75,0,0,0,3.83-2.54H83.08a1.51,1.51,0,0,1-1.39.71,1.72,1.72,0,0,1-1.8-1.68Zm-11.61,3.3,2.71-8H74.14l-.81,3.06c-.12.48-.31,1.39-.5,2.3-.26-1-.46-1.74-.63-2.3l-.89-3.06H68.86l2.86,8Zm-6.57-11H65V88.6h2.35Zm0,3H65v8h2.35Zm-11.83,0v8h2.35V93.21a1.77,1.77,0,0,1,.35-1.32,1.32,1.32,0,0,1,1-.43,1.11,1.11,0,0,1,1,.46,2.36,2.36,0,0,1,.25,1.42v4.35h2.35V92.52c0-1.88-1.06-3-2.79-3a2.85,2.85,0,0,0-2.18,1v-.78Zm-4.72-3V94a1.64,1.64,0,0,1-.45,1.39,2.51,2.51,0,0,1-3,0A1.64,1.64,0,0,1,46.93,94V86.67H44.46v7.45A3.22,3.22,0,0,0,45.64,97a6,6,0,0,0,6.46,0,3.22,3.22,0,0,0,1.19-2.87V86.67ZM34.61,91.36c1.21,0,1.88.84,1.88,2.38S35.8,96,34.61,96s-1.87-.86-1.87-2.35.68-2.33,1.87-2.33m0-1.87a4.2,4.2,0,1,0,0,8.41,4.2,4.2,0,1,0,0-8.41m-5.27.31H27.9V87.28H25.56v2.53H24.43v1.65h1.12V95.1c0,1.24.1,1.67.46,2.07s.86.53,1.88.53h1.44V95.92H28.5c-.55,0-.59-.1-.59-1.36V91.46h1.44ZM23,86.67H20.63v11H23Zm-6.62,8.44a1.83,1.83,0,0,1-1.72,1c-.73,0-1.19-.31-1.19-.84s.36-.76,1.21-1l.84-.18a4.65,4.65,0,0,0,.86-.25Zm-2.71-2.89c.1-.64.56-1,1.4-1s1.24.28,1.24.74-.18.46-.71.54l-1.27.21c-2.23.36-3.17,1.14-3.17,2.63s1.17,2.51,2.92,2.51a3.14,3.14,0,0,0,2.3-.84c.08.3.08.35.18.63h2.4c-.26-.4-.3-.51-.3-1.37V92.65a2.73,2.73,0,0,0-.79-2.33,4,4,0,0,0-2.76-.84c-2.25,0-3.39.89-3.54,2.74ZM6.49,93.44H4l1.34-4.31Zm.55,2,.59,2.21h2.81l-3.5-11H3.85L0,97.69H2.69l.69-2.21Z" style="fill:#231f20"/><path d="M44.35,45.09H27.22l8.56-24.74Zm26.5,26.15L46.26,1.79h-21L.72,71.23H18.17l4.25-12.29H49.15L53.4,71.23Z" style="fill:#231f20"/><path d="M114.93,20.87C114.93,7.49,104.27,0,89,0,74.23,0,62.83,7.65,62.83,21.19v2.18H78.45C78.45,16.9,82.84,14,88.8,14c5.49,0,9.38,2.93,9.38,7.41,0,3.57-2,6-6.57,8.54C85,33.66,81,38,81,48.34v1.54h15.7v-.63c0-5.55,1.57-7.67,7.35-11.49,5.24-3.46,10.84-8.14,10.84-16.89" style="fill:#231f20"/><rect x="81.02" y="55.52" width="15.72" height="15.72" style="fill:#231f20"/></svg>